<svg width="60" height="60" viewBox="0 0 60 60" fill="none" xmlns="http://www.w3.org/2000/svg">
  <defs>
    <linearGradient id="contactGradient" x1="0%" y1="0%" x2="100%" y2="100%">
      <stop offset="0%" style="stop-color:#00d4ff"/>
      <stop offset="100%" style="stop-color:#0099cc"/>
    </linearGradient>
  </defs>
  
  <!-- Envelope icon -->
  <path d="M10 15v30c0 2.75 2.25 5 5 5h30c2.75 0 5-2.25 5-5V15c0-2.75-2.25-5-5-5H15c-2.75 0-5 2.25-5 5z" 
        fill="url(#contactGradient)" 
        opacity="0.8"/>
  
  <!-- Envelope flap -->
  <path d="M10 15l20 15 20-15" 
        stroke="#ffffff" 
        stroke-width="2" 
        fill="none" 
        opacity="0.9">
    <animate attributeName="stroke-dasharray" values="0,60;60,0;0,60" dur="4s" repeatCount="indefinite"/>
  </path>
  
  <!-- Message indicator dots -->
  <circle cx="18" cy="25" r="1.5" fill="#ffffff" opacity="0.7">
    <animate attributeName="opacity" values="0.3;1;0.3" dur="2s" repeatCount="indefinite"/>
  </circle>
  <circle cx="24" cy="25" r="1.5" fill="#ffffff" opacity="0.7">
    <animate attributeName="opacity" values="0.3;1;0.3" dur="2s" begin="0.3s" repeatCount="indefinite"/>
  </circle>
  <circle cx="30" cy="25" r="1.5" fill="#ffffff" opacity="0.7">
    <animate attributeName="opacity" values="0.3;1;0.3" dur="2s" begin="0.6s" repeatCount="indefinite"/>
  </circle>
  
  <!-- Signal waves -->
  <g transform="translate(45,12)" opacity="0.5">
    <path d="M0,0 Q5,-5 10,0" stroke="#00d4ff" stroke-width="1" fill="none">
      <animate attributeName="stroke-opacity" values="0;1;0" dur="3s" repeatCount="indefinite"/>
    </path>
    <path d="M0,0 Q8,-8 16,0" stroke="#00d4ff" stroke-width="1" fill="none">
      <animate attributeName="stroke-opacity" values="0;1;0" dur="3s" begin="1s" repeatCount="indefinite"/>
    </path>
  </g>
</svg>
