<svg width="100" height="100" viewBox="0 0 100 100" fill="none" xmlns="http://www.w3.org/2000/svg">
  <defs>
    <linearGradient id="footerGradient" x1="0%" y1="0%" x2="100%" y2="100%">
      <stop offset="0%" style="stop-color:#00d4ff;stop-opacity:0.3"/>
      <stop offset="100%" style="stop-color:#0099cc;stop-opacity:0.1"/>
    </linearGradient>
  </defs>
  
  <!-- Central star -->
  <g transform="translate(50,50)">
    <polygon points="0,-20 6,-6 20,-6 10,2 16,16 0,8 -16,16 -10,2 -20,-6 -6,-6" 
             fill="url(#footerGradient)">
      <animateTransform attributeName="transform" type="rotate" values="0; 360" dur="30s" repeatCount="indefinite"/>
    </polygon>
  </g>
  
  <!-- Orbiting elements -->
  <circle cx="20" cy="20" r="3" fill="#00d4ff" opacity="0.4">
    <animateMotion dur="8s" repeatCount="indefinite">
      <path d="M0,0 Q30,30 60,0 Q30,-30 0,0"/>
    </animateMotion>
  </circle>
  
  <circle cx="80" cy="80" r="2" fill="#0099cc" opacity="0.4">
    <animateMotion dur="12s" repeatCount="indefinite">
      <path d="M0,0 Q-30,-30 -60,0 Q-30,30 0,0"/>
    </animateMotion>
  </circle>
  
  <!-- Pulsing dots -->
  <circle cx="15" cy="85" r="1.5" fill="#00d4ff" opacity="0.6">
    <animate attributeName="r" values="1;3;1" dur="4s" repeatCount="indefinite"/>
    <animate attributeName="opacity" values="0.2;0.8;0.2" dur="4s" repeatCount="indefinite"/>
  </circle>
  
  <circle cx="85" cy="15" r="1.5" fill="#0099cc" opacity="0.6">
    <animate attributeName="r" values="1;3;1" dur="6s" repeatCount="indefinite"/>
    <animate attributeName="opacity" values="0.2;0.8;0.2" dur="6s" repeatCount="indefinite"/>
  </circle>
</svg>
