<svg width="60" height="60" viewBox="0 0 60 60" fill="none" xmlns="http://www.w3.org/2000/svg">
  <defs>
    <linearGradient id="skillsGradient" x1="0%" y1="0%" x2="100%" y2="100%">
      <stop offset="0%" style="stop-color:#00d4ff"/>
      <stop offset="100%" style="stop-color:#0099cc"/>
    </linearGradient>
  </defs>
  
  <!-- Gear/cog icon -->
  <g transform="translate(30,30)">
    <path d="M0,-20 L4,-16 L8,-18 L12,-12 L18,-8 L16,-4 L20,0 L16,4 L18,8 L12,12 L8,18 L4,16 L0,20 L-4,16 L-8,18 L-12,12 L-18,8 L-16,4 L-20,0 L-16,-4 L-18,-8 L-12,-12 L-8,-18 L-4,-16 Z" 
          fill="url(#skillsGradient)" 
          opacity="0.7">
      <animateTransform attributeName="transform" attributeType="XML" type="rotate" values="0; 360" dur="8s" repeatCount="indefinite"/>
    </path>
    <circle cx="0" cy="0" r="8" fill="url(#skillsGradient)" opacity="0.9"/>
  </g>
  
  <!-- Orbiting particles -->
  <circle cx="45" cy="15" r="2" fill="#00d4ff" opacity="0.6">
    <animateMotion dur="6s" repeatCount="indefinite">
      <path d="M0,0 Q15,15 30,0 Q15,-15 0,0"/>
    </animateMotion>
  </circle>
  <circle cx="15" cy="45" r="1.5" fill="#0099cc" opacity="0.6">
    <animateMotion dur="4s" repeatCount="indefinite">
      <path d="M0,0 Q-10,-10 -20,0 Q-10,10 0,0"/>
    </animateMotion>
  </circle>
</svg>
